<svg width="85" height="81" viewBox="0 0 85 81" fill="none" xmlns="http://www.w3.org/2000/svg">
<path d="M42.5 74.2501C35.4922 74.254 28.6407 72.2767 22.8126 68.5685C16.9846 64.8603 12.4419 59.5878 9.75961 53.4183C7.0773 47.2489 6.37589 40.4598 7.74417 33.9103C9.11246 27.3609 12.4889 21.3454 17.4462 16.6253C24.0909 10.2934 33.103 6.73608 42.5 6.73608C51.8969 6.73608 60.909 10.2934 67.5537 16.6253C74.1984 22.9573 77.9313 31.5453 77.9313 40.5001C77.9313 49.4548 74.1984 58.0428 67.5537 64.3748C64.2704 67.5178 60.3654 70.009 56.0649 71.704C51.7644 73.3991 47.1538 74.2645 42.5 74.2501V74.2501ZM14.1666 41.0806C14.2471 48.2159 17.2884 55.0307 22.6258 60.0355C27.9632 65.0404 35.1626 67.8283 42.6506 67.7899C50.1386 67.7516 57.3062 64.8901 62.5868 59.8308C67.8674 54.7716 70.8317 47.926 70.8317 40.7903C70.8317 33.6546 67.8674 26.8091 62.5868 21.7498C57.3062 16.6906 50.1386 13.8291 42.6506 13.7907C35.1626 13.7524 27.9632 16.5403 22.6258 21.5451C17.2884 26.55 14.2471 33.3648 14.1666 40.5001V41.0806ZM33.3235 54.0001L28.3298 49.2413L37.5062 40.5001L28.3333 31.7588L33.327 27.0001L42.5 35.7413L51.6729 27.0001L56.6666 31.7588L47.4937 40.5001L56.6666 49.2413L51.68 54.0001L42.5 45.2588L33.327 54.0001H33.3235Z" fill="white"/>
</svg>
