<svg width="100" height="92" viewBox="0 0 100 92" fill="none" xmlns="http://www.w3.org/2000/svg">
<path d="M75.0003 38.3337H37.5003V26.8337C37.5003 20.4933 43.1087 15.3337 50.0003 15.3337C56.892 15.3337 62.5003 20.4933 62.5003 26.8337H70.8336C70.8336 16.2652 61.4878 7.66699 50.0003 7.66699C38.5128 7.66699 29.167 16.2652 29.167 26.8337V38.3337H25.0003C22.7902 38.3337 20.6706 39.1414 19.1078 40.5792C17.545 42.017 16.667 43.967 16.667 46.0003V76.667C16.667 78.7003 17.545 80.6504 19.1078 82.0881C20.6706 83.5259 22.7902 84.3337 25.0003 84.3337H75.0003C77.2105 84.3337 79.3301 83.5259 80.8929 82.0881C82.4557 80.6504 83.3336 78.7003 83.3336 76.667V46.0003C83.3336 43.967 82.4557 42.017 80.8929 40.5792C79.3301 39.1414 77.2105 38.3337 75.0003 38.3337ZM41.9212 59.4132C42.4333 57.6093 43.6417 56.0387 45.3207 54.9946C46.9996 53.9506 49.0342 53.5045 51.0445 53.7397C53.0548 53.975 54.9033 54.8754 56.2447 56.2729C57.5861 57.6704 58.3286 59.4693 58.3337 61.3337C58.3313 62.6743 57.9449 63.9908 57.2134 65.1503C56.4819 66.3098 55.4311 67.2715 54.167 67.9385V76.667H45.8337V67.9385C44.2571 67.1074 43.0205 65.8233 42.3137 64.2832C41.607 62.7432 41.4691 61.0323 41.9212 59.4132Z" fill="#FFD90F"/>
</svg>
