<svg width="70" height="70" viewBox="0 0 70 70" fill="none" xmlns="http://www.w3.org/2000/svg">
<path d="M35.0002 64.1667C29.2291 64.1701 23.5867 62.4613 18.7871 59.2567C13.9875 56.0521 10.2465 51.4956 8.03756 46.164C5.82859 40.8323 5.25097 34.9652 6.37779 29.3052C7.5046 23.6452 10.2852 18.4466 14.3677 14.3676C19.8398 8.89547 27.2615 5.82129 35.0002 5.82129C42.7389 5.82129 50.1606 8.89547 55.6327 14.3676C61.1048 19.8396 64.179 27.2614 64.179 35.0001C64.179 42.7387 61.1048 50.1605 55.6327 55.6325C52.9288 58.3487 49.7129 60.5015 46.1713 61.9664C42.6298 63.4313 38.8328 64.1792 35.0002 64.1667ZM11.6669 35.5017C11.7332 41.668 14.2378 47.5573 18.6333 51.8825C23.0288 56.2077 28.9577 58.617 35.1243 58.5839C41.2908 58.5507 47.1935 56.0778 51.5423 51.7056C55.891 47.3335 58.3322 41.4175 58.3322 35.2509C58.3322 29.0842 55.891 23.1683 51.5423 18.7961C47.1935 14.4239 41.2908 11.951 35.1243 11.9179C28.9577 11.8847 23.0288 14.294 18.6333 18.6192C14.2378 22.9444 11.7332 28.8337 11.6669 35.0001V35.5017ZM27.4431 46.6667L23.3306 42.5542L30.8877 35.0001L23.3335 27.4459L27.446 23.3334L35.0002 30.8876L42.5544 23.3334L46.6669 27.4459L39.1127 35.0001L46.6669 42.5542L42.5602 46.6667L35.0002 39.1125L27.446 46.6667H27.4431Z" fill="white"/>
</svg>
