<svg width="582" height="232" viewBox="0 0 582 232" fill="none" xmlns="http://www.w3.org/2000/svg">
<g filter="url(#filter0_d_257_30)">
<rect x="199.771" y="74.3354" width="69.2671" height="61.6646" rx="15" fill="white"/>
<path d="M241.961 90.7793V121.612L216.773 106.195L241.961 90.7793Z" fill="black"/>
</g>
<g filter="url(#filter1_d_257_30)">
<rect x="320.566" width="69.2671" height="61.6646" rx="15" transform="rotate(90 320.566 0)" fill="white"/>
<path d="M304.123 42.19H273.291L288.707 17.002L304.123 42.19Z" fill="black"/>
</g>
<g filter="url(#filter2_d_257_30)">
<rect x="312.963" y="74.3354" width="69.2671" height="61.6646" rx="15" fill="white"/>
<path d="M336.261 122.639V91.8071L361.449 107.223L336.261 122.639Z" fill="black"/>
</g>
<path d="M13.7418 188.55H19.3418L31.9418 221H26.8918L23.1918 211.15H9.2918L5.6418 221H0.841797L13.7418 188.55ZM21.9918 207.8L16.4918 193.15H16.0418L10.5418 207.8H21.9918ZM35.509 196.8H40.259L46.959 217.1H47.209L53.709 196.8H58.059L49.609 221H44.209L35.509 196.8ZM72.2035 221.5C69.9035 221.5 68.1202 221.283 66.8535 220.85C65.6202 220.417 64.7202 219.65 64.1535 218.55C63.6202 217.45 63.3535 215.867 63.3535 213.8C63.3535 211.967 63.6035 210.55 64.1035 209.55C64.6368 208.517 65.5202 207.783 66.7535 207.35C68.0202 206.917 69.8035 206.7 72.1035 206.7H79.3535V202.85C79.3535 201.95 79.1702 201.267 78.8035 200.8C78.4702 200.3 77.8868 199.95 77.0535 199.75C76.2535 199.55 75.0702 199.45 73.5035 199.45C71.0035 199.45 68.2368 199.65 65.2035 200.05V196.75C68.5035 196.45 71.4868 196.3 74.1535 196.3C76.9535 196.3 79.0202 196.517 80.3535 196.95C81.6868 197.35 82.6035 198.067 83.1035 199.1C83.6035 200.133 83.8535 201.733 83.8535 203.9V221H79.5035V218.7C79.1368 220.567 76.7035 221.5 72.2035 221.5ZM72.9535 218.55C74.5868 218.55 75.9702 218.433 77.1035 218.2C78.6035 217.9 79.3535 217.2 79.3535 216.1V209.5H72.4035C70.9702 209.5 69.9368 209.617 69.3035 209.85C68.6702 210.05 68.2535 210.45 68.0535 211.05C67.8535 211.65 67.7535 212.617 67.7535 213.95C67.7535 215.15 67.8702 216.083 68.1035 216.75C68.3368 217.383 68.7535 217.85 69.3535 218.15C69.9535 218.417 70.8535 218.55 72.0535 218.55H72.9535ZM94.1578 196.8H98.6578V199.75C99.1245 197.45 101.774 196.3 106.608 196.3C109.708 196.3 111.874 196.867 113.108 198C114.374 199.1 115.008 200.85 115.008 203.25V221H110.508V203.5C110.508 202.867 110.458 202.35 110.358 201.95C110.258 201.55 110.058 201.15 109.758 200.75C109.091 199.917 107.608 199.5 105.308 199.5C103.541 199.5 102.174 199.633 101.208 199.9C100.274 200.133 99.6078 200.533 99.2078 201.1C98.8411 201.667 98.6578 202.467 98.6578 203.5V221H94.1578V196.8ZM135.07 221.5C133.403 221.5 132.187 221.467 131.42 221.4C130.687 221.333 129.837 221.167 128.87 220.9C127.837 220.633 127.037 220.233 126.47 219.7C125.903 219.167 125.42 218.383 125.02 217.35C124.62 216.35 124.42 215.1 124.42 213.6V204.7C124.42 202 124.937 200.067 125.97 198.9C126.537 198.233 127.103 197.733 127.67 197.4C128.27 197.033 129.037 196.783 129.97 196.65C130.903 196.517 131.737 196.433 132.47 196.4C133.203 196.333 134.237 196.3 135.57 196.3C137.87 196.3 140.17 196.55 142.47 197.05V200.35C139.803 199.683 137.32 199.35 135.02 199.35C133.287 199.35 132.003 199.483 131.17 199.75C130.37 199.983 129.803 200.433 129.47 201.1C129.17 201.733 129.02 202.717 129.02 204.05V213.95C129.02 215.183 129.187 216.1 129.52 216.7C129.887 217.3 130.52 217.733 131.42 218C132.353 218.233 133.72 218.35 135.52 218.35C137.953 218.35 140.387 218.033 142.82 217.4V220.8C140.553 221.267 137.97 221.5 135.07 221.5ZM161.213 221.5C153.813 221.5 150.113 219.033 150.113 214.1V204.55C150.113 201.617 150.947 199.517 152.613 198.25C154.313 196.95 157.047 196.3 160.813 196.3C164.38 196.3 166.947 196.917 168.513 198.15C170.113 199.383 170.913 201.517 170.913 204.55V209.9H154.663V213.55C154.663 215.217 155.247 216.417 156.413 217.15C157.58 217.883 159.38 218.25 161.813 218.25C164.113 218.25 166.83 217.85 169.963 217.05V220.5C166.897 221.167 163.98 221.5 161.213 221.5ZM166.413 206.95V203.15C166.413 201.683 165.963 200.683 165.063 200.15C164.197 199.583 162.697 199.3 160.563 199.3C158.497 199.3 156.997 199.583 156.063 200.15C155.13 200.683 154.663 201.683 154.663 203.15V206.95H166.413ZM180.271 196.8H184.521V200.75C184.521 199.983 184.854 199.267 185.521 198.6C186.188 197.9 187.038 197.35 188.071 196.95C189.104 196.517 190.121 196.3 191.121 196.3H193.321V200.15H190.821C188.688 200.15 187.138 200.433 186.171 201C185.238 201.533 184.771 202.517 184.771 203.95V221H180.271V196.8ZM200.65 215.6H205.95L201.25 226.6H198.35L200.65 215.6ZM229.617 196.8H233.867V200.75C233.867 199.983 234.2 199.267 234.867 198.6C235.533 197.9 236.383 197.35 237.417 196.95C238.45 196.517 239.467 196.3 240.467 196.3H242.667V200.15H240.167C238.033 200.15 236.483 200.433 235.517 201C234.583 201.533 234.117 202.517 234.117 203.95V221H229.617V196.8ZM259.846 221.5C252.446 221.5 248.746 219.033 248.746 214.1V204.55C248.746 201.617 249.579 199.517 251.246 198.25C252.946 196.95 255.679 196.3 259.446 196.3C263.013 196.3 265.579 196.917 267.146 198.15C268.746 199.383 269.546 201.517 269.546 204.55V209.9H253.296V213.55C253.296 215.217 253.879 216.417 255.046 217.15C256.213 217.883 258.013 218.25 260.446 218.25C262.746 218.25 265.463 217.85 268.596 217.05V220.5C265.529 221.167 262.613 221.5 259.846 221.5ZM265.046 206.95V203.15C265.046 201.683 264.596 200.683 263.696 200.15C262.829 199.583 261.329 199.3 259.196 199.3C257.129 199.3 255.629 199.583 254.696 200.15C253.763 200.683 253.296 201.683 253.296 203.15V206.95H265.046ZM288.654 221.5C286.987 221.5 285.771 221.467 285.004 221.4C284.271 221.333 283.421 221.167 282.454 220.9C281.421 220.633 280.621 220.233 280.054 219.7C279.487 219.167 279.004 218.383 278.604 217.35C278.204 216.35 278.004 215.1 278.004 213.6V204.7C278.004 202 278.521 200.067 279.554 198.9C280.121 198.233 280.687 197.733 281.254 197.4C281.854 197.033 282.621 196.783 283.554 196.65C284.487 196.517 285.321 196.433 286.054 196.4C286.787 196.333 287.821 196.3 289.154 196.3C291.454 196.3 293.754 196.55 296.054 197.05V200.35C293.387 199.683 290.904 199.35 288.604 199.35C286.871 199.35 285.587 199.483 284.754 199.75C283.954 199.983 283.387 200.433 283.054 201.1C282.754 201.733 282.604 202.717 282.604 204.05V213.95C282.604 215.183 282.771 216.1 283.104 216.7C283.471 217.3 284.104 217.733 285.004 218C285.937 218.233 287.304 218.35 289.104 218.35C291.537 218.35 293.971 218.033 296.404 217.4V220.8C294.137 221.267 291.554 221.5 288.654 221.5ZM312.997 221.5C309.897 221.5 307.714 220.95 306.447 219.85C305.214 218.717 304.597 216.95 304.597 214.55V196.8H309.097V214.3C309.097 214.933 309.147 215.45 309.247 215.85C309.381 216.217 309.597 216.6 309.897 217C310.497 217.867 311.964 218.3 314.297 218.3C316.764 218.3 318.497 218.067 319.497 217.6C320.464 217.133 320.947 216.283 320.947 215.05V196.8H325.447V221H320.947V218.05C320.514 220.35 317.864 221.5 312.997 221.5ZM335.759 186H340.259V221H335.759V186ZM360.764 221.5C353.364 221.5 349.664 219.033 349.664 214.1V204.55C349.664 201.617 350.497 199.517 352.164 198.25C353.864 196.95 356.597 196.3 360.364 196.3C363.931 196.3 366.497 196.917 368.064 198.15C369.664 199.383 370.464 201.517 370.464 204.55V209.9H354.214V213.55C354.214 215.217 354.797 216.417 355.964 217.15C357.131 217.883 358.931 218.25 361.364 218.25C363.664 218.25 366.381 217.85 369.514 217.05V220.5C366.447 221.167 363.531 221.5 360.764 221.5ZM365.964 206.95V203.15C365.964 201.683 365.514 200.683 364.614 200.15C363.747 199.583 362.247 199.3 360.114 199.3C358.047 199.3 356.547 199.583 355.614 200.15C354.681 200.683 354.214 201.683 354.214 203.15V206.95H365.964ZM379.822 196.8H384.072V200.75C384.072 199.983 384.405 199.267 385.072 198.6C385.739 197.9 386.589 197.35 387.622 196.95C388.655 196.517 389.672 196.3 390.672 196.3H392.872V200.15H390.372C388.239 200.15 386.689 200.433 385.722 201C384.789 201.533 384.322 202.517 384.322 203.95V221H379.822V196.8ZM400.201 215.6H405.501L400.801 226.6H397.901L400.201 215.6ZM436.568 221.5C434.001 221.5 431.234 221.3 428.268 220.9V217.45C432.168 218.083 434.968 218.4 436.668 218.4C438.801 218.4 440.334 218.2 441.268 217.8C442.201 217.367 442.668 216.583 442.668 215.45V213C442.668 211.967 442.318 211.233 441.618 210.8C440.918 210.367 439.784 210.15 438.218 210.15H435.468C432.968 210.15 431.051 209.633 429.718 208.6C428.418 207.567 427.768 206.117 427.768 204.25V202C427.768 198.2 431.368 196.3 438.568 196.3C439.101 196.3 441.551 196.433 445.918 196.7V199.95C442.951 199.483 440.434 199.25 438.368 199.25C436.001 199.25 434.384 199.483 433.518 199.95C432.651 200.417 432.218 201.2 432.218 202.3V204.35C432.218 205.983 433.701 206.8 436.668 206.8H439.468C444.568 206.8 447.118 208.7 447.118 212.5V214.6C447.118 217.1 446.251 218.883 444.518 219.95C442.784 220.983 440.134 221.5 436.568 221.5ZM463.288 221.5C460.988 221.5 459.204 221.283 457.938 220.85C456.704 220.417 455.804 219.65 455.237 218.55C454.704 217.45 454.438 215.867 454.438 213.8C454.438 211.967 454.688 210.55 455.188 209.55C455.721 208.517 456.604 207.783 457.838 207.35C459.104 206.917 460.888 206.7 463.188 206.7H470.438V202.85C470.438 201.95 470.254 201.267 469.888 200.8C469.554 200.3 468.971 199.95 468.138 199.75C467.338 199.55 466.154 199.45 464.588 199.45C462.088 199.45 459.321 199.65 456.288 200.05V196.75C459.588 196.45 462.571 196.3 465.238 196.3C468.038 196.3 470.104 196.517 471.438 196.95C472.771 197.35 473.688 198.067 474.188 199.1C474.688 200.133 474.938 201.733 474.938 203.9V221H470.588V218.7C470.221 220.567 467.788 221.5 463.288 221.5ZM464.038 218.55C465.671 218.55 467.054 218.433 468.188 218.2C469.688 217.9 470.438 217.2 470.438 216.1V209.5H463.488C462.054 209.5 461.021 209.617 460.388 209.85C459.754 210.05 459.338 210.45 459.138 211.05C458.938 211.65 458.838 212.617 458.838 213.95C458.838 215.15 458.954 216.083 459.188 216.75C459.421 217.383 459.838 217.85 460.438 218.15C461.038 218.417 461.938 218.55 463.138 218.55H464.038ZM493.642 221.5C490.542 221.5 488.358 220.95 487.092 219.85C485.858 218.717 485.242 216.95 485.242 214.55V196.8H489.742V214.3C489.742 214.933 489.792 215.45 489.892 215.85C490.025 216.217 490.242 216.6 490.542 217C491.142 217.867 492.608 218.3 494.942 218.3C497.408 218.3 499.142 218.067 500.142 217.6C501.108 217.133 501.592 216.283 501.592 215.05V196.8H506.092V221H501.592V218.05C501.158 220.35 498.508 221.5 493.642 221.5ZM526.554 221.5C524.487 221.5 522.871 221.283 521.704 220.85C520.537 220.383 519.687 219.617 519.154 218.55C518.654 217.45 518.404 215.917 518.404 213.95V199.75H513.004V196.8H518.404V189.3H522.954V196.8H531.604V199.75H522.954V214.2C522.954 215.4 523.087 216.3 523.354 216.9C523.654 217.5 524.154 217.933 524.854 218.2C525.587 218.433 526.637 218.55 528.004 218.55C528.437 218.55 529.637 218.417 531.604 218.15V221.1C529.904 221.367 528.221 221.5 526.554 221.5ZM549.221 221.5C541.821 221.5 538.121 219.033 538.121 214.1V204.55C538.121 201.617 538.954 199.517 540.621 198.25C542.321 196.95 545.054 196.3 548.821 196.3C552.388 196.3 554.954 196.917 556.521 198.15C558.121 199.383 558.921 201.517 558.921 204.55V209.9H542.671V213.55C542.671 215.217 543.254 216.417 544.421 217.15C545.588 217.883 547.388 218.25 549.821 218.25C552.121 218.25 554.838 217.85 557.971 217.05V220.5C554.904 221.167 551.988 221.5 549.221 221.5ZM554.421 206.95V203.15C554.421 201.683 553.971 200.683 553.071 200.15C552.204 199.583 550.704 199.3 548.571 199.3C546.504 199.3 545.004 199.583 544.071 200.15C543.138 200.683 542.671 201.683 542.671 203.15V206.95H554.421ZM568.279 196.8H572.529V200.75C572.529 199.983 572.862 199.267 573.529 198.6C574.196 197.9 575.046 197.35 576.079 196.95C577.112 196.517 578.129 196.3 579.129 196.3H581.329V200.15H578.829C576.696 200.15 575.146 200.433 574.179 201C573.246 201.533 572.779 202.517 572.779 203.95V221H568.279V196.8Z" fill="white"/>
<defs>
<filter id="filter0_d_257_30" x="195.771" y="74.3354" width="77.2676" height="69.6646" filterUnits="userSpaceOnUse" color-interpolation-filters="sRGB">
<feFlood flood-opacity="0" result="BackgroundImageFix"/>
<feColorMatrix in="SourceAlpha" type="matrix" values="0 0 0 0 0 0 0 0 0 0 0 0 0 0 0 0 0 0 127 0" result="hardAlpha"/>
<feOffset dy="4"/>
<feGaussianBlur stdDeviation="2"/>
<feComposite in2="hardAlpha" operator="out"/>
<feColorMatrix type="matrix" values="0 0 0 0 0 0 0 0 0 0 0 0 0 0 0 0 0 0 0.25 0"/>
<feBlend mode="normal" in2="BackgroundImageFix" result="effect1_dropShadow_257_30"/>
<feBlend mode="normal" in="SourceGraphic" in2="effect1_dropShadow_257_30" result="shape"/>
</filter>
<filter id="filter1_d_257_30" x="254.902" y="0" width="69.6641" height="77.2671" filterUnits="userSpaceOnUse" color-interpolation-filters="sRGB">
<feFlood flood-opacity="0" result="BackgroundImageFix"/>
<feColorMatrix in="SourceAlpha" type="matrix" values="0 0 0 0 0 0 0 0 0 0 0 0 0 0 0 0 0 0 127 0" result="hardAlpha"/>
<feOffset dy="4"/>
<feGaussianBlur stdDeviation="2"/>
<feComposite in2="hardAlpha" operator="out"/>
<feColorMatrix type="matrix" values="0 0 0 0 0 0 0 0 0 0 0 0 0 0 0 0 0 0 0.25 0"/>
<feBlend mode="normal" in2="BackgroundImageFix" result="effect1_dropShadow_257_30"/>
<feBlend mode="normal" in="SourceGraphic" in2="effect1_dropShadow_257_30" result="shape"/>
</filter>
<filter id="filter2_d_257_30" x="308.963" y="74.3354" width="77.2676" height="69.6646" filterUnits="userSpaceOnUse" color-interpolation-filters="sRGB">
<feFlood flood-opacity="0" result="BackgroundImageFix"/>
<feColorMatrix in="SourceAlpha" type="matrix" values="0 0 0 0 0 0 0 0 0 0 0 0 0 0 0 0 0 0 127 0" result="hardAlpha"/>
<feOffset dy="4"/>
<feGaussianBlur stdDeviation="2"/>
<feComposite in2="hardAlpha" operator="out"/>
<feColorMatrix type="matrix" values="0 0 0 0 0 0 0 0 0 0 0 0 0 0 0 0 0 0 0.25 0"/>
<feBlend mode="normal" in2="BackgroundImageFix" result="effect1_dropShadow_257_30"/>
<feBlend mode="normal" in="SourceGraphic" in2="effect1_dropShadow_257_30" result="shape"/>
</filter>
</defs>
</svg>
