<svg width="1054" height="840" viewBox="0 0 1054 840" fill="none" xmlns="http://www.w3.org/2000/svg">
<rect y="25" width="1019" height="815" rx="13" fill="black" fill-opacity="0.76"/>
<path d="M356.705 90.12H375.425V121.32H408.545V90.12H427.265V168H408.545V134.64H375.425V168H356.705V90.12ZM450.009 90.12H509.409V103.44H468.729V121.32H505.449V134.64H468.729V154.68H510.609V168H450.009V90.12ZM529.252 90.12H547.972V154.68H586.252V168H529.252V90.12ZM604.861 90.12H636.061C643.661 90.12 649.661 90.64 654.061 91.68C658.541 92.72 661.781 94.56 663.781 97.2C665.861 99.76 666.901 103.36 666.901 108V122.76C666.901 127.88 665.781 131.88 663.541 134.76C661.381 137.64 657.901 139.68 653.101 140.88C648.381 142.08 641.981 142.68 633.901 142.68H623.581V168H604.861V90.12ZM635.461 129.84C640.341 129.84 643.781 129.28 645.781 128.16C647.781 126.96 648.781 124.96 648.781 122.16V109.68C648.781 107.12 647.821 105.44 645.901 104.64C644.061 103.84 640.501 103.44 635.221 103.44H623.581V129.84H635.461Z" fill="white"/>
<path d="M266.149 278.55H271.749L284.349 311H279.299L275.599 301.15H261.699L258.049 311H253.249L266.149 278.55ZM274.399 297.8L268.899 283.15H268.449L262.949 297.8H274.399ZM301.666 311.5C299.6 311.5 297.983 311.283 296.816 310.85C295.65 310.383 294.8 309.617 294.266 308.55C293.766 307.45 293.516 305.917 293.516 303.95V289.75H288.116V286.8H293.516V279.3H298.066V286.8H306.716V289.75H298.066V304.2C298.066 305.4 298.2 306.3 298.466 306.9C298.766 307.5 299.266 307.933 299.966 308.2C300.7 308.433 301.75 308.55 303.116 308.55C303.55 308.55 304.75 308.417 306.716 308.15V311.1C305.016 311.367 303.333 311.5 301.666 311.5ZM324.283 311.5C322.217 311.5 320.6 311.283 319.433 310.85C318.267 310.383 317.417 309.617 316.883 308.55C316.383 307.45 316.133 305.917 316.133 303.95V289.75H310.733V286.8H316.133V279.3H320.683V286.8H329.333V289.75H320.683V304.2C320.683 305.4 320.817 306.3 321.083 306.9C321.383 307.5 321.883 307.933 322.583 308.2C323.317 308.433 324.367 308.55 325.733 308.55C326.167 308.55 327.367 308.417 329.333 308.15V311.1C327.633 311.367 325.95 311.5 324.283 311.5ZM344.201 311.5C341.901 311.5 340.117 311.283 338.851 310.85C337.617 310.417 336.717 309.65 336.151 308.55C335.617 307.45 335.351 305.867 335.351 303.8C335.351 301.967 335.601 300.55 336.101 299.55C336.634 298.517 337.517 297.783 338.751 297.35C340.017 296.917 341.801 296.7 344.101 296.7H351.351V292.85C351.351 291.95 351.167 291.267 350.801 290.8C350.467 290.3 349.884 289.95 349.051 289.75C348.251 289.55 347.067 289.45 345.501 289.45C343.001 289.45 340.234 289.65 337.201 290.05V286.75C340.501 286.45 343.484 286.3 346.151 286.3C348.951 286.3 351.017 286.517 352.351 286.95C353.684 287.35 354.601 288.067 355.101 289.1C355.601 290.133 355.851 291.733 355.851 293.9V311H351.501V308.7C351.134 310.567 348.701 311.5 344.201 311.5ZM344.951 308.55C346.584 308.55 347.967 308.433 349.101 308.2C350.601 307.9 351.351 307.2 351.351 306.1V299.5H344.401C342.967 299.5 341.934 299.617 341.301 299.85C340.667 300.05 340.251 300.45 340.051 301.05C339.851 301.65 339.751 302.617 339.751 303.95C339.751 305.15 339.867 306.083 340.101 306.75C340.334 307.383 340.751 307.85 341.351 308.15C341.951 308.417 342.851 308.55 344.051 308.55H344.951ZM383.705 309.45C383.038 310.817 380.605 311.5 376.405 311.5C374.872 311.5 373.655 311.45 372.755 311.35C371.855 311.25 370.972 311.05 370.105 310.75C369.205 310.417 368.488 309.95 367.955 309.35C367.422 308.75 366.988 307.933 366.655 306.9C366.322 305.9 366.155 304.633 366.155 303.1V294.15C366.155 291.35 367.022 289.35 368.755 288.15C370.522 286.917 373.438 286.3 377.505 286.3C381.372 286.3 384.122 286.917 385.755 288.15C387.388 289.35 388.205 291.35 388.205 294.15V321.4H383.705V309.45ZM377.305 308.4C379.072 308.4 380.388 308.283 381.255 308.05C382.155 307.783 382.788 307.317 383.155 306.65C383.522 305.95 383.705 304.933 383.705 303.6V294.75C383.705 293.217 383.522 292.1 383.155 291.4C382.788 290.667 382.172 290.183 381.305 289.95C380.438 289.683 379.122 289.55 377.355 289.55C375.288 289.55 373.805 289.667 372.905 289.9C372.038 290.133 371.455 290.6 371.155 291.3C370.888 292 370.755 293.15 370.755 294.75V303.6C370.755 304.967 370.955 305.983 371.355 306.65C371.755 307.317 372.405 307.783 373.305 308.05C374.238 308.283 375.572 308.4 377.305 308.4ZM406.01 311.5C402.91 311.5 400.727 310.95 399.46 309.85C398.227 308.717 397.61 306.95 397.61 304.55V286.8H402.11V304.3C402.11 304.933 402.16 305.45 402.26 305.85C402.393 306.217 402.61 306.6 402.91 307C403.51 307.867 404.977 308.3 407.31 308.3C409.777 308.3 411.51 308.067 412.51 307.6C413.477 307.133 413.96 306.283 413.96 305.05V286.8H418.46V311H413.96V308.05C413.527 310.35 410.877 311.5 406.01 311.5ZM438.972 311.5C431.572 311.5 427.872 309.033 427.872 304.1V294.55C427.872 291.617 428.705 289.517 430.372 288.25C432.072 286.95 434.805 286.3 438.572 286.3C442.139 286.3 444.705 286.917 446.272 288.15C447.872 289.383 448.672 291.517 448.672 294.55V299.9H432.422V303.55C432.422 305.217 433.005 306.417 434.172 307.15C435.339 307.883 437.139 308.25 439.572 308.25C441.872 308.25 444.589 307.85 447.722 307.05V310.5C444.655 311.167 441.739 311.5 438.972 311.5ZM444.172 296.95V293.15C444.172 291.683 443.722 290.683 442.822 290.15C441.955 289.583 440.455 289.3 438.322 289.3C436.255 289.3 434.755 289.583 433.822 290.15C432.889 290.683 432.422 291.683 432.422 293.15V296.95H444.172ZM472.053 286.8H476.503V289.4H476.553C476.92 287.333 479.67 286.3 484.803 286.3C487.87 286.3 490.187 286.95 491.753 288.25C493.32 289.517 494.103 291.15 494.103 293.15V303.1C494.103 304.533 493.887 305.783 493.453 306.85C493.053 307.917 492.52 308.75 491.853 309.35C491.253 309.917 490.42 310.367 489.353 310.7C488.32 311.033 487.287 311.25 486.253 311.35C485.32 311.45 484.187 311.5 482.853 311.5C481.387 311.5 480.037 311.333 478.803 311C477.603 310.633 476.853 310.117 476.553 309.45V321.4H472.053V286.8ZM482.953 308.45C484.687 308.45 486.003 308.333 486.903 308.1C487.837 307.833 488.503 307.367 488.903 306.7C489.303 306.033 489.503 305.017 489.503 303.65V294.75C489.503 293.25 489.303 292.133 488.903 291.4C488.503 290.667 487.837 290.183 486.903 289.95C486.003 289.683 484.67 289.55 482.903 289.55C481.137 289.55 479.82 289.683 478.953 289.95C478.087 290.183 477.47 290.667 477.103 291.4C476.737 292.1 476.553 293.217 476.553 294.75V303.65C476.553 305.017 476.737 306.033 477.103 306.7C477.503 307.367 478.153 307.833 479.053 308.1C479.953 308.333 481.253 308.45 482.953 308.45ZM503.508 286.8H507.758V290.75C507.758 289.983 508.092 289.267 508.758 288.6C509.425 287.9 510.275 287.35 511.308 286.95C512.342 286.517 513.358 286.3 514.358 286.3H516.558V290.15H514.058C511.925 290.15 510.375 290.433 509.408 291C508.475 291.533 508.008 292.517 508.008 293.95V311H503.508V286.8ZM523.538 278.05H528.038V282.75H523.538V278.05ZM523.538 286.8H528.038V311H523.538V286.8ZM538.342 286.8H542.842V289.75C543.309 287.45 545.959 286.3 550.792 286.3C553.892 286.3 556.059 286.867 557.292 288C558.559 289.1 559.192 290.85 559.192 293.25V311H554.692V293.5C554.692 292.867 554.642 292.35 554.542 291.95C554.442 291.55 554.242 291.15 553.942 290.75C553.276 289.917 551.792 289.5 549.492 289.5C547.726 289.5 546.359 289.633 545.392 289.9C544.459 290.133 543.792 290.533 543.392 291.1C543.026 291.667 542.842 292.467 542.842 293.5V311H538.342V286.8ZM579.254 311.5C577.588 311.5 576.371 311.467 575.604 311.4C574.871 311.333 574.021 311.167 573.054 310.9C572.021 310.633 571.221 310.233 570.654 309.7C570.088 309.167 569.604 308.383 569.204 307.35C568.804 306.35 568.604 305.1 568.604 303.6V294.7C568.604 292 569.121 290.067 570.154 288.9C570.721 288.233 571.288 287.733 571.854 287.4C572.454 287.033 573.221 286.783 574.154 286.65C575.088 286.517 575.921 286.433 576.654 286.4C577.388 286.333 578.421 286.3 579.754 286.3C582.054 286.3 584.354 286.55 586.654 287.05V290.35C583.988 289.683 581.504 289.35 579.204 289.35C577.471 289.35 576.188 289.483 575.354 289.75C574.554 289.983 573.988 290.433 573.654 291.1C573.354 291.733 573.204 292.717 573.204 294.05V303.95C573.204 305.183 573.371 306.1 573.704 306.7C574.071 307.3 574.704 307.733 575.604 308C576.538 308.233 577.904 308.35 579.704 308.35C582.138 308.35 584.571 308.033 587.004 307.4V310.8C584.738 311.267 582.154 311.5 579.254 311.5ZM595.198 278.05H599.698V282.75H595.198V278.05ZM595.198 286.8H599.698V311H595.198V286.8ZM610.003 286.8H614.453V289.4H614.503C614.869 287.333 617.619 286.3 622.753 286.3C625.819 286.3 628.136 286.95 629.703 288.25C631.269 289.517 632.053 291.15 632.053 293.15V303.1C632.053 304.533 631.836 305.783 631.403 306.85C631.003 307.917 630.469 308.75 629.803 309.35C629.203 309.917 628.369 310.367 627.303 310.7C626.269 311.033 625.236 311.25 624.203 311.35C623.269 311.45 622.136 311.5 620.803 311.5C619.336 311.5 617.986 311.333 616.753 311C615.553 310.633 614.803 310.117 614.503 309.45V321.4H610.003V286.8ZM620.903 308.45C622.636 308.45 623.953 308.333 624.853 308.1C625.786 307.833 626.453 307.367 626.853 306.7C627.253 306.033 627.453 305.017 627.453 303.65V294.75C627.453 293.25 627.253 292.133 626.853 291.4C626.453 290.667 625.786 290.183 624.853 289.95C623.953 289.683 622.619 289.55 620.853 289.55C619.086 289.55 617.769 289.683 616.903 289.95C616.036 290.183 615.419 290.667 615.053 291.4C614.686 292.1 614.503 293.217 614.503 294.75V303.65C614.503 305.017 614.686 306.033 615.053 306.7C615.453 307.367 616.103 307.833 617.003 308.1C617.903 308.333 619.203 308.45 620.903 308.45ZM648.908 311.5C646.608 311.5 644.824 311.283 643.558 310.85C642.324 310.417 641.424 309.65 640.858 308.55C640.324 307.45 640.058 305.867 640.058 303.8C640.058 301.967 640.308 300.55 640.808 299.55C641.341 298.517 642.224 297.783 643.458 297.35C644.724 296.917 646.508 296.7 648.808 296.7H656.058V292.85C656.058 291.95 655.874 291.267 655.508 290.8C655.174 290.3 654.591 289.95 653.758 289.75C652.958 289.55 651.774 289.45 650.208 289.45C647.708 289.45 644.941 289.65 641.908 290.05V286.75C645.208 286.45 648.191 286.3 650.858 286.3C653.658 286.3 655.724 286.517 657.058 286.95C658.391 287.35 659.308 288.067 659.808 289.1C660.308 290.133 660.558 291.733 660.558 293.9V311H656.208V308.7C655.841 310.567 653.408 311.5 648.908 311.5ZM649.658 308.55C651.291 308.55 652.674 308.433 653.808 308.2C655.308 307.9 656.058 307.2 656.058 306.1V299.5H649.108C647.674 299.5 646.641 299.617 646.008 299.85C645.374 300.05 644.958 300.45 644.758 301.05C644.558 301.65 644.458 302.617 644.458 303.95C644.458 305.15 644.574 306.083 644.808 306.75C645.041 307.383 645.458 307.85 646.058 308.15C646.658 308.417 647.558 308.55 648.758 308.55H649.658ZM670.862 276H675.362V311H670.862V276ZM695.867 311.5C688.467 311.5 684.767 309.033 684.767 304.1V294.55C684.767 291.617 685.6 289.517 687.267 288.25C688.967 286.95 691.7 286.3 695.467 286.3C699.033 286.3 701.6 286.917 703.167 288.15C704.767 289.383 705.567 291.517 705.567 294.55V299.9H689.317V303.55C689.317 305.217 689.9 306.417 691.067 307.15C692.233 307.883 694.033 308.25 696.467 308.25C698.767 308.25 701.483 307.85 704.617 307.05V310.5C701.55 311.167 698.633 311.5 695.867 311.5ZM701.067 296.95V293.15C701.067 291.683 700.617 290.683 699.717 290.15C698.85 289.583 697.35 289.3 695.217 289.3C693.15 289.3 691.65 289.583 690.717 290.15C689.783 290.683 689.317 291.683 689.317 293.15V296.95H701.067Z" fill="white"/>
<path d="M265.055 405.55H270.655L283.255 438H278.205L274.505 428.15H260.605L256.955 438H252.155L265.055 405.55ZM273.305 424.8L267.805 410.15H267.355L261.855 424.8H273.305ZM300.572 438.5C298.506 438.5 296.889 438.283 295.722 437.85C294.556 437.383 293.706 436.617 293.172 435.55C292.672 434.45 292.422 432.917 292.422 430.95V416.75H287.022V413.8H292.422V406.3H296.972V413.8H305.622V416.75H296.972V431.2C296.972 432.4 297.106 433.3 297.372 433.9C297.672 434.5 298.172 434.933 298.872 435.2C299.606 435.433 300.656 435.55 302.022 435.55C302.456 435.55 303.656 435.417 305.622 435.15V438.1C303.922 438.367 302.239 438.5 300.572 438.5ZM323.19 438.5C321.123 438.5 319.506 438.283 318.34 437.85C317.173 437.383 316.323 436.617 315.79 435.55C315.29 434.45 315.04 432.917 315.04 430.95V416.75H309.64V413.8H315.04V406.3H319.59V413.8H328.24V416.75H319.59V431.2C319.59 432.4 319.723 433.3 319.99 433.9C320.29 434.5 320.79 434.933 321.49 435.2C322.223 435.433 323.273 435.55 324.64 435.55C325.073 435.55 326.273 435.417 328.24 435.15V438.1C326.54 438.367 324.856 438.5 323.19 438.5ZM343.107 438.5C340.807 438.5 339.024 438.283 337.757 437.85C336.524 437.417 335.624 436.65 335.057 435.55C334.524 434.45 334.257 432.867 334.257 430.8C334.257 428.967 334.507 427.55 335.007 426.55C335.54 425.517 336.424 424.783 337.657 424.35C338.924 423.917 340.707 423.7 343.007 423.7H350.257V419.85C350.257 418.95 350.074 418.267 349.707 417.8C349.374 417.3 348.79 416.95 347.957 416.75C347.157 416.55 345.974 416.45 344.407 416.45C341.907 416.45 339.14 416.65 336.107 417.05V413.75C339.407 413.45 342.39 413.3 345.057 413.3C347.857 413.3 349.924 413.517 351.257 413.95C352.59 414.35 353.507 415.067 354.007 416.1C354.507 417.133 354.757 418.733 354.757 420.9V438H350.407V435.7C350.04 437.567 347.607 438.5 343.107 438.5ZM343.857 435.55C345.49 435.55 346.874 435.433 348.007 435.2C349.507 434.9 350.257 434.2 350.257 433.1V426.5H343.307C341.874 426.5 340.84 426.617 340.207 426.85C339.574 427.05 339.157 427.45 338.957 428.05C338.757 428.65 338.657 429.617 338.657 430.95C338.657 432.15 338.774 433.083 339.007 433.75C339.24 434.383 339.657 434.85 340.257 435.15C340.857 435.417 341.757 435.55 342.957 435.55H343.857ZM382.611 436.45C381.944 437.817 379.511 438.5 375.311 438.5C373.778 438.5 372.561 438.45 371.661 438.35C370.761 438.25 369.878 438.05 369.011 437.75C368.111 437.417 367.394 436.95 366.861 436.35C366.328 435.75 365.894 434.933 365.561 433.9C365.228 432.9 365.061 431.633 365.061 430.1V421.15C365.061 418.35 365.928 416.35 367.661 415.15C369.428 413.917 372.344 413.3 376.411 413.3C380.278 413.3 383.028 413.917 384.661 415.15C386.294 416.35 387.111 418.35 387.111 421.15V448.4H382.611V436.45ZM376.211 435.4C377.978 435.4 379.294 435.283 380.161 435.05C381.061 434.783 381.694 434.317 382.061 433.65C382.428 432.95 382.611 431.933 382.611 430.6V421.75C382.611 420.217 382.428 419.1 382.061 418.4C381.694 417.667 381.078 417.183 380.211 416.95C379.344 416.683 378.028 416.55 376.261 416.55C374.194 416.55 372.711 416.667 371.811 416.9C370.944 417.133 370.361 417.6 370.061 418.3C369.794 419 369.661 420.15 369.661 421.75V430.6C369.661 431.967 369.861 432.983 370.261 433.65C370.661 434.317 371.311 434.783 372.211 435.05C373.144 435.283 374.478 435.4 376.211 435.4ZM404.916 438.5C401.816 438.5 399.633 437.95 398.366 436.85C397.133 435.717 396.516 433.95 396.516 431.55V413.8H401.016V431.3C401.016 431.933 401.066 432.45 401.166 432.85C401.3 433.217 401.516 433.6 401.816 434C402.416 434.867 403.883 435.3 406.216 435.3C408.683 435.3 410.416 435.067 411.416 434.6C412.383 434.133 412.866 433.283 412.866 432.05V413.8H417.366V438H412.866V435.05C412.433 437.35 409.783 438.5 404.916 438.5ZM437.878 438.5C430.478 438.5 426.778 436.033 426.778 431.1V421.55C426.778 418.617 427.612 416.517 429.278 415.25C430.978 413.95 433.712 413.3 437.478 413.3C441.045 413.3 443.612 413.917 445.178 415.15C446.778 416.383 447.578 418.517 447.578 421.55V426.9H431.328V430.55C431.328 432.217 431.912 433.417 433.078 434.15C434.245 434.883 436.045 435.25 438.478 435.25C440.778 435.25 443.495 434.85 446.628 434.05V437.5C443.562 438.167 440.645 438.5 437.878 438.5ZM443.078 423.95V420.15C443.078 418.683 442.628 417.683 441.728 417.15C440.862 416.583 439.362 416.3 437.228 416.3C435.162 416.3 433.662 416.583 432.728 417.15C431.795 417.683 431.328 418.683 431.328 420.15V423.95H443.078ZM480.61 438.5C477.843 438.5 474.543 438.233 470.71 437.7V433.65C474.576 434.483 477.976 434.9 480.91 434.9C483.376 434.9 485.176 434.633 486.31 434.1C487.443 433.533 488.01 432.5 488.01 431V426.8C488.01 425.4 487.61 424.417 486.81 423.85C486.01 423.283 484.61 423 482.61 423H478.81C475.643 423 473.393 422.367 472.06 421.1C470.726 419.833 470.06 417.867 470.06 415.2V412.6C470.06 410.833 470.443 409.4 471.21 408.3C472.01 407.2 473.326 406.383 475.16 405.85C477.026 405.317 479.576 405.05 482.81 405.05C484.976 405.05 487.76 405.233 491.16 405.6V409.25C487.36 408.683 484.46 408.4 482.46 408.4C479.36 408.4 477.31 408.7 476.31 409.3C475.276 409.933 474.76 410.983 474.76 412.45V416.15C474.76 417.283 475.16 418.117 475.96 418.65C476.793 419.15 478.21 419.4 480.21 419.4H484.11C486.343 419.4 488.076 419.667 489.31 420.2C490.576 420.733 491.46 421.55 491.96 422.65C492.493 423.717 492.76 425.167 492.76 427V429.35C492.76 431.65 492.326 433.467 491.46 434.8C490.626 436.133 489.326 437.083 487.56 437.65C485.793 438.217 483.476 438.5 480.61 438.5ZM512.126 438.5C504.726 438.5 501.026 436.033 501.026 431.1V421.55C501.026 418.617 501.86 416.517 503.526 415.25C505.226 413.95 507.96 413.3 511.726 413.3C515.293 413.3 517.86 413.917 519.426 415.15C521.026 416.383 521.826 418.517 521.826 421.55V426.9H505.576V430.55C505.576 432.217 506.16 433.417 507.326 434.15C508.493 434.883 510.293 435.25 512.726 435.25C515.026 435.25 517.743 434.85 520.876 434.05V437.5C517.81 438.167 514.893 438.5 512.126 438.5ZM517.326 423.95V420.15C517.326 418.683 516.876 417.683 515.976 417.15C515.11 416.583 513.61 416.3 511.476 416.3C509.41 416.3 507.91 416.583 506.976 417.15C506.043 417.683 505.576 418.683 505.576 420.15V423.95H517.326ZM540.934 438.5C539.268 438.5 538.051 438.467 537.284 438.4C536.551 438.333 535.701 438.167 534.734 437.9C533.701 437.633 532.901 437.233 532.334 436.7C531.768 436.167 531.284 435.383 530.884 434.35C530.484 433.35 530.284 432.1 530.284 430.6V421.7C530.284 419 530.801 417.067 531.834 415.9C532.401 415.233 532.968 414.733 533.534 414.4C534.134 414.033 534.901 413.783 535.834 413.65C536.768 413.517 537.601 413.433 538.334 413.4C539.068 413.333 540.101 413.3 541.434 413.3C543.734 413.3 546.034 413.55 548.334 414.05V417.35C545.668 416.683 543.184 416.35 540.884 416.35C539.151 416.35 537.868 416.483 537.034 416.75C536.234 416.983 535.668 417.433 535.334 418.1C535.034 418.733 534.884 419.717 534.884 421.05V430.95C534.884 432.183 535.051 433.1 535.384 433.7C535.751 434.3 536.384 434.733 537.284 435C538.218 435.233 539.584 435.35 541.384 435.35C543.818 435.35 546.251 435.033 548.684 434.4V437.8C546.418 438.267 543.834 438.5 540.934 438.5ZM567.128 438.5C564.994 438.5 563.394 438.417 562.328 438.25C561.261 438.117 560.194 437.8 559.128 437.3C558.028 436.8 557.228 436 556.728 434.9C556.228 433.767 555.978 432.25 555.978 430.35V421.95C555.978 420.45 556.161 419.133 556.528 418C556.894 416.867 557.378 415.983 557.978 415.35C558.478 414.783 559.228 414.35 560.228 414.05C561.261 413.717 562.311 413.5 563.378 413.4C564.578 413.333 565.828 413.3 567.128 413.3C568.861 413.3 570.161 413.35 571.028 413.45C571.928 413.517 572.878 413.683 573.878 413.95C574.911 414.25 575.711 414.7 576.278 415.3C576.844 415.9 577.328 416.767 577.728 417.9C578.094 419.067 578.278 420.417 578.278 421.95V430.35C578.278 433.183 577.628 435.25 576.328 436.55C575.794 437.083 575.028 437.5 574.028 437.8C573.028 438.1 571.994 438.3 570.928 438.4C569.661 438.467 568.394 438.5 567.128 438.5ZM567.128 435.55C568.528 435.55 569.544 435.517 570.178 435.45C570.811 435.383 571.428 435.2 572.028 434.9C572.628 434.633 573.044 434.2 573.278 433.6C573.544 432.967 573.678 432.1 573.678 431V421.2C573.678 419.7 573.494 418.617 573.128 417.95C572.761 417.25 572.128 416.8 571.228 416.6C570.361 416.367 568.994 416.25 567.128 416.25C565.261 416.25 563.878 416.367 562.978 416.6C562.111 416.8 561.494 417.25 561.128 417.95C560.761 418.617 560.578 419.7 560.578 421.2V431C560.578 432.1 560.694 432.967 560.928 433.6C561.194 434.2 561.628 434.633 562.228 434.9C562.828 435.2 563.444 435.383 564.078 435.45C564.711 435.517 565.728 435.55 567.128 435.55ZM587.796 413.8H592.296V416.75C592.762 414.45 595.412 413.3 600.246 413.3C603.346 413.3 605.512 413.867 606.746 415C608.012 416.1 608.646 417.85 608.646 420.25V438H604.146V420.5C604.146 419.867 604.096 419.35 603.996 418.95C603.896 418.55 603.696 418.15 603.396 417.75C602.729 416.917 601.246 416.5 598.946 416.5C597.179 416.5 595.812 416.633 594.846 416.9C593.912 417.133 593.246 417.533 592.846 418.1C592.479 418.667 592.296 419.467 592.296 420.5V438H587.796V413.8ZM627.608 438.5C625.208 438.5 623.324 438.267 621.958 437.8C620.591 437.3 619.591 436.5 618.958 435.4C618.358 434.3 618.058 432.767 618.058 430.8V420.15C618.058 417.717 618.808 415.967 620.308 414.9C621.841 413.833 624.358 413.3 627.858 413.3C629.958 413.3 631.758 413.567 633.258 414.1C634.791 414.633 635.574 415.4 635.608 416.4H635.708L635.608 410.25V403H640.108V438H635.708V435.15C635.708 436.05 634.991 436.817 633.558 437.45C632.124 438.15 630.141 438.5 627.608 438.5ZM628.558 435.4C631.058 435.4 632.858 435.117 633.958 434.55C635.058 433.983 635.608 433.017 635.608 431.65V419.7C635.608 417.533 633.391 416.45 628.958 416.45C626.291 416.45 624.558 416.65 623.758 417.05C622.924 417.45 622.508 418.333 622.508 419.7V431.65C622.508 433.017 622.958 433.983 623.858 434.55C624.791 435.117 626.358 435.4 628.558 435.4ZM657.472 438.5C655.172 438.5 653.389 438.283 652.122 437.85C650.889 437.417 649.989 436.65 649.422 435.55C648.889 434.45 648.622 432.867 648.622 430.8C648.622 428.967 648.872 427.55 649.372 426.55C649.905 425.517 650.789 424.783 652.022 424.35C653.289 423.917 655.072 423.7 657.372 423.7H664.622V419.85C664.622 418.95 664.439 418.267 664.072 417.8C663.739 417.3 663.155 416.95 662.322 416.75C661.522 416.55 660.339 416.45 658.772 416.45C656.272 416.45 653.505 416.65 650.472 417.05V413.75C653.772 413.45 656.755 413.3 659.422 413.3C662.222 413.3 664.289 413.517 665.622 413.95C666.955 414.35 667.872 415.067 668.372 416.1C668.872 417.133 669.122 418.733 669.122 420.9V438H664.772V435.7C664.405 437.567 661.972 438.5 657.472 438.5ZM658.222 435.55C659.855 435.55 661.239 435.433 662.372 435.2C663.872 434.9 664.622 434.2 664.622 433.1V426.5H657.672C656.239 426.5 655.205 426.617 654.572 426.85C653.939 427.05 653.522 427.45 653.322 428.05C653.122 428.65 653.022 429.617 653.022 430.95C653.022 432.15 653.139 433.083 653.372 433.75C653.605 434.383 654.022 434.85 654.622 435.15C655.222 435.417 656.122 435.55 657.322 435.55H658.222ZM679.426 405.05H683.926V409.75H679.426V405.05ZM679.426 413.8H683.926V438H679.426V413.8ZM694.231 413.8H698.481V417.75C698.481 416.983 698.814 416.267 699.481 415.6C700.148 414.9 700.998 414.35 702.031 413.95C703.064 413.517 704.081 413.3 705.081 413.3H707.281V417.15H704.781C702.648 417.15 701.098 417.433 700.131 418C699.198 418.533 698.731 419.517 698.731 420.95V438H694.231V413.8ZM724.46 438.5C717.06 438.5 713.36 436.033 713.36 431.1V421.55C713.36 418.617 714.194 416.517 715.86 415.25C717.56 413.95 720.294 413.3 724.06 413.3C727.627 413.3 730.194 413.917 731.76 415.15C733.36 416.383 734.16 418.517 734.16 421.55V426.9H717.91V430.55C717.91 432.217 718.494 433.417 719.66 434.15C720.827 434.883 722.627 435.25 725.06 435.25C727.36 435.25 730.077 434.85 733.21 434.05V437.5C730.144 438.167 727.227 438.5 724.46 438.5ZM729.66 423.95V420.15C729.66 418.683 729.21 417.683 728.31 417.15C727.444 416.583 725.944 416.3 723.81 416.3C721.744 416.3 720.244 416.583 719.31 417.15C718.377 417.683 717.91 418.683 717.91 420.15V423.95H729.66Z" fill="white"/>
<g filter="url(#filter0_d_280_27)">
<rect x="86" y="248" width="80" height="80" rx="15" fill="white"/>
<g filter="url(#filter1_d_280_27)">
<path d="M123.278 265.57H131.118L148.758 311H141.688L136.508 297.21H117.048L111.938 311H105.218L123.278 265.57ZM134.828 292.52L127.128 272.01H126.498L118.798 292.52H134.828Z" fill="black"/>
</g>
</g>
<g filter="url(#filter2_d_280_27)">
<rect x="87" y="383" width="80" height="80" rx="15" fill="white"/>
<path d="M109.997 438.24L136.737 402.33H110.697V397.57H144.577V402.33L117.837 438.24H144.997V443H109.997V438.24Z" fill="black"/>
</g>
<g filter="url(#filter3_d_280_27)">
<rect x="436.771" y="593.335" width="69.2671" height="61.6646" rx="15" fill="white"/>
<path d="M478.961 609.779V640.612L453.773 625.195L478.961 609.779Z" fill="black"/>
</g>
<g filter="url(#filter4_d_280_27)">
<rect x="557.566" y="519" width="69.2671" height="61.6646" rx="15" transform="rotate(90 557.566 519)" fill="white"/>
<path d="M541.123 561.19H510.291L525.707 536.002L541.123 561.19Z" fill="black"/>
</g>
<g filter="url(#filter5_d_280_27)">
<rect x="549.963" y="593.335" width="69.2671" height="61.6646" rx="15" fill="white"/>
<path d="M573.261 641.639V610.807L598.449 626.223L573.261 641.639Z" fill="black"/>
</g>
<path d="M250.742 707.55H256.342L268.942 740H263.892L260.192 730.15H246.292L242.642 740H237.842L250.742 707.55ZM258.992 726.8L253.492 712.15H253.042L247.542 726.8H258.992ZM272.509 715.8H277.259L283.959 736.1H284.209L290.709 715.8H295.059L286.609 740H281.209L272.509 715.8ZM309.204 740.5C306.904 740.5 305.12 740.283 303.854 739.85C302.62 739.417 301.72 738.65 301.154 737.55C300.62 736.45 300.354 734.867 300.354 732.8C300.354 730.967 300.604 729.55 301.104 728.55C301.637 727.517 302.52 726.783 303.754 726.35C305.02 725.917 306.804 725.7 309.104 725.7H316.354V721.85C316.354 720.95 316.17 720.267 315.804 719.8C315.47 719.3 314.887 718.95 314.054 718.75C313.254 718.55 312.07 718.45 310.504 718.45C308.004 718.45 305.237 718.65 302.204 719.05V715.75C305.504 715.45 308.487 715.3 311.154 715.3C313.954 715.3 316.02 715.517 317.354 715.95C318.687 716.35 319.604 717.067 320.104 718.1C320.604 719.133 320.854 720.733 320.854 722.9V740H316.504V737.7C316.137 739.567 313.704 740.5 309.204 740.5ZM309.954 737.55C311.587 737.55 312.97 737.433 314.104 737.2C315.604 736.9 316.354 736.2 316.354 735.1V728.5H309.404C307.97 728.5 306.937 728.617 306.304 728.85C305.67 729.05 305.254 729.45 305.054 730.05C304.854 730.65 304.754 731.617 304.754 732.95C304.754 734.15 304.87 735.083 305.104 735.75C305.337 736.383 305.754 736.85 306.354 737.15C306.954 737.417 307.854 737.55 309.054 737.55H309.954ZM331.158 715.8H335.658V718.75C336.124 716.45 338.774 715.3 343.608 715.3C346.708 715.3 348.874 715.867 350.108 717C351.374 718.1 352.008 719.85 352.008 722.25V740H347.508V722.5C347.508 721.867 347.458 721.35 347.358 720.95C347.258 720.55 347.058 720.15 346.758 719.75C346.091 718.917 344.608 718.5 342.308 718.5C340.541 718.5 339.174 718.633 338.208 718.9C337.274 719.133 336.608 719.533 336.208 720.1C335.841 720.667 335.658 721.467 335.658 722.5V740H331.158V715.8ZM372.07 740.5C370.403 740.5 369.187 740.467 368.42 740.4C367.687 740.333 366.837 740.167 365.87 739.9C364.837 739.633 364.037 739.233 363.47 738.7C362.903 738.167 362.42 737.383 362.02 736.35C361.62 735.35 361.42 734.1 361.42 732.6V723.7C361.42 721 361.937 719.067 362.97 717.9C363.537 717.233 364.103 716.733 364.67 716.4C365.27 716.033 366.037 715.783 366.97 715.65C367.903 715.517 368.737 715.433 369.47 715.4C370.203 715.333 371.237 715.3 372.57 715.3C374.87 715.3 377.17 715.55 379.47 716.05V719.35C376.803 718.683 374.32 718.35 372.02 718.35C370.287 718.35 369.003 718.483 368.17 718.75C367.37 718.983 366.803 719.433 366.47 720.1C366.17 720.733 366.02 721.717 366.02 723.05V732.95C366.02 734.183 366.187 735.1 366.52 735.7C366.887 736.3 367.52 736.733 368.42 737C369.353 737.233 370.72 737.35 372.52 737.35C374.953 737.35 377.387 737.033 379.82 736.4V739.8C377.553 740.267 374.97 740.5 372.07 740.5ZM398.213 740.5C390.813 740.5 387.113 738.033 387.113 733.1V723.55C387.113 720.617 387.947 718.517 389.613 717.25C391.313 715.95 394.047 715.3 397.813 715.3C401.38 715.3 403.947 715.917 405.513 717.15C407.113 718.383 407.913 720.517 407.913 723.55V728.9H391.663V732.55C391.663 734.217 392.247 735.417 393.413 736.15C394.58 736.883 396.38 737.25 398.813 737.25C401.113 737.25 403.83 736.85 406.963 736.05V739.5C403.897 740.167 400.98 740.5 398.213 740.5ZM403.413 725.95V722.15C403.413 720.683 402.963 719.683 402.063 719.15C401.197 718.583 399.697 718.3 397.563 718.3C395.497 718.3 393.997 718.583 393.063 719.15C392.13 719.683 391.663 720.683 391.663 722.15V725.95H403.413ZM417.271 715.8H421.521V719.75C421.521 718.983 421.854 718.267 422.521 717.6C423.188 716.9 424.038 716.35 425.071 715.95C426.104 715.517 427.121 715.3 428.121 715.3H430.321V719.15H427.821C425.688 719.15 424.138 719.433 423.171 720C422.238 720.533 421.771 721.517 421.771 722.95V740H417.271V715.8ZM437.65 734.6H442.95L438.25 745.6H435.35L437.65 734.6ZM466.617 715.8H470.867V719.75C470.867 718.983 471.2 718.267 471.867 717.6C472.533 716.9 473.383 716.35 474.417 715.95C475.45 715.517 476.467 715.3 477.467 715.3H479.667V719.15H477.167C475.033 719.15 473.483 719.433 472.517 720C471.583 720.533 471.117 721.517 471.117 722.95V740H466.617V715.8ZM496.846 740.5C489.446 740.5 485.746 738.033 485.746 733.1V723.55C485.746 720.617 486.579 718.517 488.246 717.25C489.946 715.95 492.679 715.3 496.446 715.3C500.013 715.3 502.579 715.917 504.146 717.15C505.746 718.383 506.546 720.517 506.546 723.55V728.9H490.296V732.55C490.296 734.217 490.879 735.417 492.046 736.15C493.213 736.883 495.013 737.25 497.446 737.25C499.746 737.25 502.463 736.85 505.596 736.05V739.5C502.529 740.167 499.613 740.5 496.846 740.5ZM502.046 725.95V722.15C502.046 720.683 501.596 719.683 500.696 719.15C499.829 718.583 498.329 718.3 496.196 718.3C494.129 718.3 492.629 718.583 491.696 719.15C490.763 719.683 490.296 720.683 490.296 722.15V725.95H502.046ZM525.654 740.5C523.987 740.5 522.771 740.467 522.004 740.4C521.271 740.333 520.421 740.167 519.454 739.9C518.421 739.633 517.621 739.233 517.054 738.7C516.487 738.167 516.004 737.383 515.604 736.35C515.204 735.35 515.004 734.1 515.004 732.6V723.7C515.004 721 515.521 719.067 516.554 717.9C517.121 717.233 517.687 716.733 518.254 716.4C518.854 716.033 519.621 715.783 520.554 715.65C521.487 715.517 522.321 715.433 523.054 715.4C523.787 715.333 524.821 715.3 526.154 715.3C528.454 715.3 530.754 715.55 533.054 716.05V719.35C530.387 718.683 527.904 718.35 525.604 718.35C523.871 718.35 522.587 718.483 521.754 718.75C520.954 718.983 520.387 719.433 520.054 720.1C519.754 720.733 519.604 721.717 519.604 723.05V732.95C519.604 734.183 519.771 735.1 520.104 735.7C520.471 736.3 521.104 736.733 522.004 737C522.937 737.233 524.304 737.35 526.104 737.35C528.537 737.35 530.971 737.033 533.404 736.4V739.8C531.137 740.267 528.554 740.5 525.654 740.5ZM549.997 740.5C546.897 740.5 544.714 739.95 543.447 738.85C542.214 737.717 541.597 735.95 541.597 733.55V715.8H546.097V733.3C546.097 733.933 546.147 734.45 546.247 734.85C546.381 735.217 546.597 735.6 546.897 736C547.497 736.867 548.964 737.3 551.297 737.3C553.764 737.3 555.497 737.067 556.497 736.6C557.464 736.133 557.947 735.283 557.947 734.05V715.8H562.447V740H557.947V737.05C557.514 739.35 554.864 740.5 549.997 740.5ZM572.759 705H577.259V740H572.759V705ZM597.764 740.5C590.364 740.5 586.664 738.033 586.664 733.1V723.55C586.664 720.617 587.497 718.517 589.164 717.25C590.864 715.95 593.597 715.3 597.364 715.3C600.931 715.3 603.497 715.917 605.064 717.15C606.664 718.383 607.464 720.517 607.464 723.55V728.9H591.214V732.55C591.214 734.217 591.797 735.417 592.964 736.15C594.131 736.883 595.931 737.25 598.364 737.25C600.664 737.25 603.381 736.85 606.514 736.05V739.5C603.447 740.167 600.531 740.5 597.764 740.5ZM602.964 725.95V722.15C602.964 720.683 602.514 719.683 601.614 719.15C600.747 718.583 599.247 718.3 597.114 718.3C595.047 718.3 593.547 718.583 592.614 719.15C591.681 719.683 591.214 720.683 591.214 722.15V725.95H602.964ZM616.822 715.8H621.072V719.75C621.072 718.983 621.405 718.267 622.072 717.6C622.739 716.9 623.589 716.35 624.622 715.95C625.655 715.517 626.672 715.3 627.672 715.3H629.872V719.15H627.372C625.239 719.15 623.689 719.433 622.722 720C621.789 720.533 621.322 721.517 621.322 722.95V740H616.822V715.8ZM637.201 734.6H642.501L637.801 745.6H634.901L637.201 734.6ZM673.568 740.5C671.001 740.5 668.234 740.3 665.268 739.9V736.45C669.168 737.083 671.968 737.4 673.668 737.4C675.801 737.4 677.334 737.2 678.268 736.8C679.201 736.367 679.668 735.583 679.668 734.45V732C679.668 730.967 679.318 730.233 678.618 729.8C677.918 729.367 676.784 729.15 675.218 729.15H672.468C669.968 729.15 668.051 728.633 666.718 727.6C665.418 726.567 664.768 725.117 664.768 723.25V721C664.768 717.2 668.368 715.3 675.568 715.3C676.101 715.3 678.551 715.433 682.918 715.7V718.95C679.951 718.483 677.434 718.25 675.368 718.25C673.001 718.25 671.384 718.483 670.518 718.95C669.651 719.417 669.218 720.2 669.218 721.3V723.35C669.218 724.983 670.701 725.8 673.668 725.8H676.468C681.568 725.8 684.118 727.7 684.118 731.5V733.6C684.118 736.1 683.251 737.883 681.518 738.95C679.784 739.983 677.134 740.5 673.568 740.5ZM700.288 740.5C697.988 740.5 696.204 740.283 694.938 739.85C693.704 739.417 692.804 738.65 692.237 737.55C691.704 736.45 691.438 734.867 691.438 732.8C691.438 730.967 691.688 729.55 692.188 728.55C692.721 727.517 693.604 726.783 694.838 726.35C696.104 725.917 697.888 725.7 700.188 725.7H707.438V721.85C707.438 720.95 707.254 720.267 706.888 719.8C706.554 719.3 705.971 718.95 705.138 718.75C704.338 718.55 703.154 718.45 701.588 718.45C699.088 718.45 696.321 718.65 693.288 719.05V715.75C696.588 715.45 699.571 715.3 702.238 715.3C705.038 715.3 707.104 715.517 708.438 715.95C709.771 716.35 710.688 717.067 711.188 718.1C711.688 719.133 711.938 720.733 711.938 722.9V740H707.588V737.7C707.221 739.567 704.788 740.5 700.288 740.5ZM701.038 737.55C702.671 737.55 704.054 737.433 705.188 737.2C706.688 736.9 707.438 736.2 707.438 735.1V728.5H700.488C699.054 728.5 698.021 728.617 697.388 728.85C696.754 729.05 696.338 729.45 696.138 730.05C695.938 730.65 695.838 731.617 695.838 732.95C695.838 734.15 695.954 735.083 696.188 735.75C696.421 736.383 696.838 736.85 697.438 737.15C698.038 737.417 698.938 737.55 700.138 737.55H701.038ZM730.642 740.5C727.542 740.5 725.358 739.95 724.092 738.85C722.858 737.717 722.242 735.95 722.242 733.55V715.8H726.742V733.3C726.742 733.933 726.792 734.45 726.892 734.85C727.025 735.217 727.242 735.6 727.542 736C728.142 736.867 729.608 737.3 731.942 737.3C734.408 737.3 736.142 737.067 737.142 736.6C738.108 736.133 738.592 735.283 738.592 734.05V715.8H743.092V740H738.592V737.05C738.158 739.35 735.508 740.5 730.642 740.5ZM763.554 740.5C761.487 740.5 759.871 740.283 758.704 739.85C757.537 739.383 756.687 738.617 756.154 737.55C755.654 736.45 755.404 734.917 755.404 732.95V718.75H750.004V715.8H755.404V708.3H759.954V715.8H768.604V718.75H759.954V733.2C759.954 734.4 760.087 735.3 760.354 735.9C760.654 736.5 761.154 736.933 761.854 737.2C762.587 737.433 763.637 737.55 765.004 737.55C765.437 737.55 766.637 737.417 768.604 737.15V740.1C766.904 740.367 765.221 740.5 763.554 740.5ZM786.221 740.5C778.821 740.5 775.121 738.033 775.121 733.1V723.55C775.121 720.617 775.954 718.517 777.621 717.25C779.321 715.95 782.054 715.3 785.821 715.3C789.388 715.3 791.954 715.917 793.521 717.15C795.121 718.383 795.921 720.517 795.921 723.55V728.9H779.671V732.55C779.671 734.217 780.254 735.417 781.421 736.15C782.588 736.883 784.388 737.25 786.821 737.25C789.121 737.25 791.838 736.85 794.971 736.05V739.5C791.904 740.167 788.988 740.5 786.221 740.5ZM791.421 725.95V722.15C791.421 720.683 790.971 719.683 790.071 719.15C789.204 718.583 787.704 718.3 785.571 718.3C783.504 718.3 782.004 718.583 781.071 719.15C780.138 719.683 779.671 720.683 779.671 722.15V725.95H791.421ZM805.279 715.8H809.529V719.75C809.529 718.983 809.862 718.267 810.529 717.6C811.196 716.9 812.046 716.35 813.079 715.95C814.112 715.517 815.129 715.3 816.129 715.3H818.329V719.15H815.829C813.696 719.15 812.146 719.433 811.179 720C810.246 720.533 809.779 721.517 809.779 722.95V740H805.279V715.8Z" fill="white"/>
<path d="M1019 64.1667C1013.23 64.1701 1007.59 62.4613 1002.79 59.2567C997.988 56.0521 994.247 51.4956 992.038 46.164C989.829 40.8323 989.251 34.9652 990.378 29.3052C991.505 23.6452 994.285 18.4466 998.368 14.3676C1003.84 8.89547 1011.26 5.82129 1019 5.82129C1026.74 5.82129 1034.16 8.89547 1039.63 14.3676C1045.1 19.8396 1048.18 27.2614 1048.18 35.0001C1048.18 42.7387 1045.1 50.1605 1039.63 55.6325C1036.93 58.3487 1033.71 60.5015 1030.17 61.9664C1026.63 63.4313 1022.83 64.1792 1019 64.1667ZM995.667 35.5017C995.733 41.668 998.238 47.5573 1002.63 51.8825C1007.03 56.2077 1012.96 58.617 1019.12 58.5839C1025.29 58.5507 1031.19 56.0778 1035.54 51.7056C1039.89 47.3335 1042.33 41.4175 1042.33 35.2509C1042.33 29.0842 1039.89 23.1683 1035.54 18.7961C1031.19 14.4239 1025.29 11.951 1019.12 11.9179C1012.96 11.8847 1007.03 14.294 1002.63 18.6192C998.238 22.9444 995.733 28.8337 995.667 35.0001V35.5017ZM1011.44 46.6667L1007.33 42.5542L1014.89 35.0001L1007.33 27.4459L1011.45 23.3334L1019 30.8876L1026.55 23.3334L1030.67 27.4459L1023.11 35.0001L1030.67 42.5542L1026.56 46.6667L1019 39.1125L1011.45 46.6667H1011.44Z" fill="white"/>
<defs>
<filter id="filter0_d_280_27" x="82" y="248" width="88" height="88" filterUnits="userSpaceOnUse" color-interpolation-filters="sRGB">
<feFlood flood-opacity="0" result="BackgroundImageFix"/>
<feColorMatrix in="SourceAlpha" type="matrix" values="0 0 0 0 0 0 0 0 0 0 0 0 0 0 0 0 0 0 127 0" result="hardAlpha"/>
<feOffset dy="4"/>
<feGaussianBlur stdDeviation="2"/>
<feComposite in2="hardAlpha" operator="out"/>
<feColorMatrix type="matrix" values="0 0 0 0 0 0 0 0 0 0 0 0 0 0 0 0 0 0 0.25 0"/>
<feBlend mode="normal" in2="BackgroundImageFix" result="effect1_dropShadow_280_27"/>
<feBlend mode="normal" in="SourceGraphic" in2="effect1_dropShadow_280_27" result="shape"/>
</filter>
<filter id="filter1_d_280_27" x="101.219" y="265.57" width="51.5391" height="53.4299" filterUnits="userSpaceOnUse" color-interpolation-filters="sRGB">
<feFlood flood-opacity="0" result="BackgroundImageFix"/>
<feColorMatrix in="SourceAlpha" type="matrix" values="0 0 0 0 0 0 0 0 0 0 0 0 0 0 0 0 0 0 127 0" result="hardAlpha"/>
<feOffset dy="4"/>
<feGaussianBlur stdDeviation="2"/>
<feComposite in2="hardAlpha" operator="out"/>
<feColorMatrix type="matrix" values="0 0 0 0 0 0 0 0 0 0 0 0 0 0 0 0 0 0 0.25 0"/>
<feBlend mode="normal" in2="BackgroundImageFix" result="effect1_dropShadow_280_27"/>
<feBlend mode="normal" in="SourceGraphic" in2="effect1_dropShadow_280_27" result="shape"/>
</filter>
<filter id="filter2_d_280_27" x="83" y="383" width="88" height="88" filterUnits="userSpaceOnUse" color-interpolation-filters="sRGB">
<feFlood flood-opacity="0" result="BackgroundImageFix"/>
<feColorMatrix in="SourceAlpha" type="matrix" values="0 0 0 0 0 0 0 0 0 0 0 0 0 0 0 0 0 0 127 0" result="hardAlpha"/>
<feOffset dy="4"/>
<feGaussianBlur stdDeviation="2"/>
<feComposite in2="hardAlpha" operator="out"/>
<feColorMatrix type="matrix" values="0 0 0 0 0 0 0 0 0 0 0 0 0 0 0 0 0 0 0.25 0"/>
<feBlend mode="normal" in2="BackgroundImageFix" result="effect1_dropShadow_280_27"/>
<feBlend mode="normal" in="SourceGraphic" in2="effect1_dropShadow_280_27" result="shape"/>
</filter>
<filter id="filter3_d_280_27" x="432.771" y="593.335" width="77.2676" height="69.6646" filterUnits="userSpaceOnUse" color-interpolation-filters="sRGB">
<feFlood flood-opacity="0" result="BackgroundImageFix"/>
<feColorMatrix in="SourceAlpha" type="matrix" values="0 0 0 0 0 0 0 0 0 0 0 0 0 0 0 0 0 0 127 0" result="hardAlpha"/>
<feOffset dy="4"/>
<feGaussianBlur stdDeviation="2"/>
<feComposite in2="hardAlpha" operator="out"/>
<feColorMatrix type="matrix" values="0 0 0 0 0 0 0 0 0 0 0 0 0 0 0 0 0 0 0.25 0"/>
<feBlend mode="normal" in2="BackgroundImageFix" result="effect1_dropShadow_280_27"/>
<feBlend mode="normal" in="SourceGraphic" in2="effect1_dropShadow_280_27" result="shape"/>
</filter>
<filter id="filter4_d_280_27" x="491.902" y="519" width="69.6641" height="77.2671" filterUnits="userSpaceOnUse" color-interpolation-filters="sRGB">
<feFlood flood-opacity="0" result="BackgroundImageFix"/>
<feColorMatrix in="SourceAlpha" type="matrix" values="0 0 0 0 0 0 0 0 0 0 0 0 0 0 0 0 0 0 127 0" result="hardAlpha"/>
<feOffset dy="4"/>
<feGaussianBlur stdDeviation="2"/>
<feComposite in2="hardAlpha" operator="out"/>
<feColorMatrix type="matrix" values="0 0 0 0 0 0 0 0 0 0 0 0 0 0 0 0 0 0 0.25 0"/>
<feBlend mode="normal" in2="BackgroundImageFix" result="effect1_dropShadow_280_27"/>
<feBlend mode="normal" in="SourceGraphic" in2="effect1_dropShadow_280_27" result="shape"/>
</filter>
<filter id="filter5_d_280_27" x="545.963" y="593.335" width="77.2676" height="69.6646" filterUnits="userSpaceOnUse" color-interpolation-filters="sRGB">
<feFlood flood-opacity="0" result="BackgroundImageFix"/>
<feColorMatrix in="SourceAlpha" type="matrix" values="0 0 0 0 0 0 0 0 0 0 0 0 0 0 0 0 0 0 127 0" result="hardAlpha"/>
<feOffset dy="4"/>
<feGaussianBlur stdDeviation="2"/>
<feComposite in2="hardAlpha" operator="out"/>
<feColorMatrix type="matrix" values="0 0 0 0 0 0 0 0 0 0 0 0 0 0 0 0 0 0 0.25 0"/>
<feBlend mode="normal" in2="BackgroundImageFix" result="effect1_dropShadow_280_27"/>
<feBlend mode="normal" in="SourceGraphic" in2="effect1_dropShadow_280_27" result="shape"/>
</filter>
</defs>
</svg>
