<svg width="64" height="64" viewBox="0 0 64 64" fill="none" xmlns="http://www.w3.org/2000/svg">
<path d="M31.9997 5.33325C17.2797 5.33325 5.33301 17.2799 5.33301 31.9999C5.33301 46.7199 17.2797 58.6666 31.9997 58.6666C46.7197 58.6666 58.6663 46.7199 58.6663 31.9999C58.6663 17.2799 46.7197 5.33325 31.9997 5.33325ZM18.853 48.7466C19.9997 46.3466 26.9863 43.9999 31.9997 43.9999C37.013 43.9999 44.0263 46.3466 45.1463 48.7466C41.5197 51.6266 36.9597 53.3332 31.9997 53.3332C27.0397 53.3332 22.4797 51.6266 18.853 48.7466ZM48.9597 44.8799C45.1463 40.2399 35.893 38.6666 31.9997 38.6666C28.1063 38.6666 18.853 40.2399 15.0397 44.8799C12.2067 41.1835 10.6698 36.6571 10.6663 31.9999C10.6663 20.2399 20.2397 10.6666 31.9997 10.6666C43.7597 10.6666 53.333 20.2399 53.333 31.9999C53.333 36.8533 51.6797 41.3066 48.9597 44.8799ZM31.9997 15.9999C26.8263 15.9999 22.6663 20.1599 22.6663 25.3333C22.6663 30.5066 26.8263 34.6666 31.9997 34.6666C37.173 34.6666 41.333 30.5066 41.333 25.3333C41.333 20.1599 37.173 15.9999 31.9997 15.9999ZM31.9997 29.3333C29.7863 29.3333 27.9997 27.5466 27.9997 25.3333C27.9997 23.1199 29.7863 21.3333 31.9997 21.3333C34.213 21.3333 35.9997 23.1199 35.9997 25.3333C35.9997 27.5466 34.213 29.3333 31.9997 29.3333Z" fill="#DDDDDD"/>
</svg>
