<svg width="60" height="60" viewBox="0 0 60 60" fill="none" xmlns="http://www.w3.org/2000/svg">
<path d="M30.0002 59.1667C24.2291 59.1701 18.5867 57.4613 13.7871 54.2567C8.98753 51.0521 5.24652 46.4956 3.03756 41.164C0.828592 35.8323 0.250966 29.9652 1.37779 24.3052C2.5046 18.6452 5.28522 13.4466 9.3677 9.36755C14.8398 3.89547 22.2615 0.821289 30.0002 0.821289C37.7389 0.821289 45.1606 3.89547 50.6327 9.36755C56.1048 14.8396 59.179 22.2614 59.179 30.0001C59.179 37.7387 56.1048 45.1605 50.6327 50.6325C47.9288 53.3487 44.7129 55.5015 41.1713 56.9664C37.6298 58.4313 33.8328 59.1792 30.0002 59.1667ZM6.66687 30.5017C6.73316 36.668 9.23775 42.5573 13.6333 46.8825C18.0288 51.2077 23.9577 53.617 30.1243 53.5839C36.2908 53.5507 42.1935 51.0778 46.5423 46.7056C50.891 42.3335 53.3322 36.4175 53.3322 30.2509C53.3322 24.0842 50.891 18.1683 46.5423 13.7961C42.1935 9.42394 36.2908 6.95103 30.1243 6.91789C23.9577 6.88474 18.0288 9.29405 13.6333 13.6192C9.23775 17.9444 6.73316 23.8337 6.66687 30.0001V30.5017ZM22.4431 41.6667L18.3306 37.5542L25.8877 30.0001L18.3335 22.4459L22.446 18.3334L30.0002 25.8876L37.5544 18.3334L41.6669 22.4459L34.1127 30.0001L41.6669 37.5542L37.5602 41.6667L30.0002 34.1125L22.446 41.6667H22.4431Z" fill="white"/>
</svg>
